<svg width="94" height="26" viewBox="0 0 94 26" fill="none" xmlns="http://www.w3.org/2000/svg">
<path d="M45.5837 17.2995C44.7556 17.9568 43.759 18.3674 42.7082 18.4841C41.6573 18.6007 40.5949 18.4187 39.6428 17.9589C38.6907 17.4991 37.8876 16.7802 37.3256 15.8846C36.7636 14.9891 36.4654 13.9532 36.4654 12.8959C36.4654 11.8386 36.7636 10.8027 37.3256 9.90714C37.8876 9.01159 38.6907 8.29269 39.6428 7.83289C40.5949 7.37309 41.6573 7.19104 42.7082 7.30768C43.759 7.42432 44.7556 7.83491 45.5837 8.49229L45.628 8.53335L48.0232 6.13974L47.9664 6.09237C46.3363 4.67667 44.2503 3.89633 42.0912 3.89453C40.6392 3.89427 39.2088 4.24528 37.9219 4.91768C36.635 5.59008 35.5299 6.56388 34.7009 7.75594C33.8719 8.948 33.3436 10.3229 33.1612 11.7634C32.9787 13.2039 33.1475 14.6671 33.6531 16.0282C34.1587 17.3893 34.9861 18.6079 36.0647 19.5799C37.1433 20.5519 38.4411 21.2485 39.8473 21.6103C41.2535 21.972 42.7263 21.9882 44.1401 21.6574C45.5539 21.3265 46.8667 20.6586 47.9664 19.7105L48.0232 19.6552L45.628 17.26L45.5837 17.2995ZM51.2679 21.4046H54.7099V4.39975H51.2679V21.4046ZM68.2727 15.2658C68.1496 15.0385 62.2728 4.37137 62.2728 4.37137H58.9145V21.373H62.3487V11.2191C62.6029 11.6564 68.2758 21.512 68.2758 21.512C68.2758 21.512 73.9236 11.6611 74.1794 11.2191V21.373H77.6072V4.36346H74.2473L68.2727 15.2579V15.2658ZM91.7606 12.6796C92.3687 12.3266 92.8733 11.8198 93.2236 11.21C93.574 10.6003 93.7576 9.90915 93.7563 9.20595C93.7563 6.23603 91.729 4.39343 88.4717 4.39343H81.6271V21.3983H88.7559C89.4356 21.4737 90.1236 21.4005 90.7723 21.1839C91.421 20.9674 92.015 20.6125 92.5131 20.144C93.0113 19.6754 93.4017 19.1043 93.6575 18.47C93.9133 17.8358 94.0283 17.1536 93.9947 16.4705C94.0336 15.6896 93.8428 14.9145 93.4457 14.2409C93.0486 13.5674 92.4627 13.0251 91.7606 12.6812V12.6796ZM85.0644 7.47074H88.2222C89.5358 7.47074 90.3237 8.17178 90.3237 9.34333C90.3237 10.5149 89.5343 11.2127 88.2222 11.2127H85.0644V7.47074ZM88.4259 18.3194H85.0644V14.3169H88.4259C88.6993 14.2997 88.9733 14.3387 89.231 14.4315C89.4887 14.5243 89.7247 14.6689 89.9244 14.8565C90.124 15.044 90.2831 15.2704 90.3919 15.5218C90.5007 15.7732 90.5569 16.0443 90.5569 16.3182C90.5569 16.5921 90.5007 16.8631 90.3919 17.1145C90.2831 17.3659 90.124 17.5923 89.9244 17.7799C89.7247 17.9674 89.4887 18.112 89.231 18.2048C88.9733 18.2976 88.6993 18.3366 88.4259 18.3194Z" fill="white"/>
<path d="M0 0H25.9462V25.951H0V0Z" fill="white"/>
<path d="M16.8156 4.90234H3.02539L9.12786 12.9721H22.9197L16.8156 4.90234Z" fill="#DA001A"/>
<path d="M22.9195 12.9727H9.12298L3.02051 21.0504H16.8107L22.9195 12.9727Z" fill="#4E000D"/>
</svg>
